<svg width="42" height="32" viewBox="0 0 42 32" fill="none" xmlns="http://www.w3.org/2000/svg">
<path d="M34.9342 3.21625C32.385 2.02791 29.625 1.16541 26.75 0.66708C26.7248 0.666274 26.6997 0.671005 26.6766 0.680939C26.6534 0.690874 26.6327 0.705771 26.6159 0.724581C26.2709 1.35708 25.8684 2.18125 25.6 2.81375C22.5506 2.35375 19.4494 2.35375 16.4 2.81375C16.1317 2.16208 15.7292 1.35708 15.365 0.724581C15.3459 0.686247 15.2884 0.66708 15.2309 0.66708C12.3559 1.16541 9.61502 2.02791 7.04669 3.21625C7.02752 3.21625 7.00836 3.23541 6.98919 3.25458C1.77585 11.0554 0.338355 18.6454 1.04752 26.1587C1.04752 26.1971 1.06669 26.2354 1.10502 26.2546C4.55502 28.7846 7.87086 30.3179 11.1484 31.3337C11.2059 31.3529 11.2634 31.3337 11.2825 31.2954C12.0492 30.2412 12.7392 29.1296 13.3334 27.9604C13.3717 27.8837 13.3334 27.8071 13.2567 27.7879C12.1642 27.3662 11.1292 26.8679 10.1134 26.2929C10.0367 26.2546 10.0367 26.1396 10.0942 26.0821C10.305 25.9287 10.5159 25.7562 10.7267 25.6029C10.765 25.5646 10.8225 25.5646 10.8609 25.5837C17.4542 28.5929 24.565 28.5929 31.0817 25.5837C31.12 25.5646 31.1775 25.5646 31.2159 25.6029C31.4267 25.7754 31.6375 25.9287 31.8484 26.1012C31.925 26.1587 31.925 26.2737 31.8292 26.3121C30.8325 26.9062 29.7784 27.3854 28.6859 27.8071C28.6092 27.8262 28.59 27.9221 28.6092 27.9796C29.2225 29.1487 29.9125 30.2604 30.66 31.3146C30.7175 31.3337 30.775 31.3529 30.8325 31.3337C34.1292 30.3179 37.445 28.7846 40.895 26.2546C40.9334 26.2354 40.9525 26.1971 40.9525 26.1587C41.7959 17.4762 39.5534 9.94375 35.0109 3.25458C34.9917 3.23541 34.9725 3.21625 34.9342 3.21625ZM14.33 21.5779C12.3559 21.5779 10.7075 19.7571 10.7075 17.5146C10.7075 15.2721 12.3175 13.4512 14.33 13.4512C16.3617 13.4512 17.9717 15.2912 17.9525 17.5146C17.9525 19.7571 16.3425 21.5779 14.33 21.5779ZM27.6892 21.5779C25.715 21.5779 24.0667 19.7571 24.0667 17.5146C24.0667 15.2721 25.6767 13.4512 27.6892 13.4512C29.7209 13.4512 31.3309 15.2912 31.3117 17.5146C31.3117 19.7571 29.7209 21.5779 27.6892 21.5779Z" fill="black"/>
</svg>
