<svg width="58" height="58" viewBox="0 0 58 58" fill="none" xmlns="http://www.w3.org/2000/svg">
<path d="M53.0667 57.5L33.1167 37.55C31.5333 38.8167 29.7125 39.8194 27.6542 40.5583C25.5958 41.2972 23.4056 41.6667 21.0833 41.6667C15.3306 41.6667 10.4623 39.6738 6.47867 35.688C2.495 31.7022 0.502111 26.834 0.5 21.0833C0.5 15.3306 2.49289 10.4623 6.47867 6.47867C10.4644 2.495 15.3327 0.502111 21.0833 0.5C26.8361 0.5 31.7043 2.49289 35.688 6.47867C39.6717 10.4644 41.6646 15.3327 41.6667 21.0833C41.6667 23.4056 41.2972 25.5958 40.5583 27.6542C39.8194 29.7125 38.8167 31.5333 37.55 33.1167L57.5 53.0667L53.0667 57.5ZM21.0833 35.3333C25.0417 35.3333 28.4068 33.9474 31.1787 31.1755C33.9506 28.4036 35.3354 25.0396 35.3333 21.0833C35.3333 17.125 33.9474 13.7599 31.1755 10.988C28.4036 8.21611 25.0396 6.83122 21.0833 6.83333C17.125 6.83333 13.7599 8.21928 10.988 10.9912C8.21611 13.7631 6.83122 17.1271 6.83333 21.0833C6.83333 25.0417 8.21928 28.4068 10.9912 31.1787C13.7631 33.9506 17.1271 35.3354 21.0833 35.3333ZM14.75 30.5833L17.125 22.825L10.7917 17.7583H18.55L21.0833 10L23.6167 17.7583H31.375L25.0417 22.825L27.4167 30.5833L21.0833 25.675L14.75 30.5833Z" fill="white"/>
</svg>
