<svg width="41" height="41" viewBox="0 0 41 41" fill="none" xmlns="http://www.w3.org/2000/svg">
<path d="M9.49102 0.0357056C8.04417 0.0357056 6.65658 0.610465 5.6335 1.63354C4.61042 2.65662 4.03566 4.04421 4.03566 5.49106V19.3393C4.81505 18.7531 5.66002 18.2596 6.55352 17.8688V10.9515H38.4464V31.5089C38.4464 33.1304 37.1304 34.4464 35.5089 34.4464H23.1311C22.7383 35.3445 22.2431 36.1888 21.6623 36.9643H35.5089C36.9557 36.9643 38.3433 36.3895 39.3664 35.3664C40.3895 34.3434 40.9642 32.9558 40.9642 31.5089V5.49106C40.9642 4.04421 40.3895 2.65662 39.3664 1.63354C38.3433 0.610465 36.9557 0.0357056 35.5089 0.0357056H9.49102ZM9.49102 2.55356H35.5089C36.288 2.55356 37.0351 2.86305 37.586 3.41394C38.1369 3.96482 38.4464 4.71199 38.4464 5.49106V8.4336H6.55352V5.49106C6.55352 4.71199 6.86301 3.96482 7.41389 3.41394C7.96478 2.86305 8.71195 2.55356 9.49102 2.55356ZM0.67852 29.4107C0.67852 32.3044 1.82804 35.0796 3.8742 37.1257C5.92035 39.1719 8.69553 40.3214 11.5892 40.3214C14.4829 40.3214 17.2581 39.1719 19.3043 37.1257C21.3504 35.0796 22.4999 32.3044 22.4999 29.4107C22.4999 26.517 21.3504 23.7418 19.3043 21.6957C17.2581 19.6495 14.4829 18.5 11.5892 18.5C8.69553 18.5 5.92035 19.6495 3.8742 21.6957C1.82804 23.7418 0.67852 26.517 0.67852 29.4107ZM14.3522 24.9692C14.1946 24.8116 14.106 24.5979 14.106 24.375C14.106 24.1521 14.1946 23.9384 14.3522 23.7808C14.5098 23.6232 14.7235 23.5346 14.9464 23.5346C15.1693 23.5346 15.383 23.6232 15.5406 23.7808L18.8977 27.1379C18.9759 27.2159 19.0379 27.3085 19.0802 27.4105C19.1225 27.5124 19.1443 27.6217 19.1443 27.7321C19.1443 27.8425 19.1225 27.9518 19.0802 28.0538C19.0379 28.1558 18.9759 28.2484 18.8977 28.3263L15.5406 31.6835C15.4626 31.7615 15.3699 31.8234 15.268 31.8657C15.166 31.9079 15.0567 31.9296 14.9464 31.9296C14.836 31.9296 14.7267 31.9079 14.6248 31.8657C14.5228 31.8234 14.4302 31.7615 14.3522 31.6835C14.2741 31.6055 14.2122 31.5128 14.17 31.4109C14.1278 31.3089 14.106 31.1996 14.106 31.0893C14.106 30.9789 14.1278 30.8696 14.17 30.7677C14.2122 30.6657 14.2741 30.5731 14.3522 30.4951L16.2775 28.5714H12.0089C10.7846 28.5714 9.6105 29.0578 8.74482 29.9234C7.87914 30.7891 7.39281 31.9632 7.39281 33.1875V33.6071C7.39281 33.8297 7.30438 34.0432 7.14699 34.2006C6.98959 34.358 6.77611 34.4464 6.55352 34.4464C6.33093 34.4464 6.11745 34.358 5.96006 34.2006C5.80266 34.0432 5.71423 33.8297 5.71423 33.6071V33.1875C5.71423 31.518 6.37742 29.917 7.55789 28.7365C8.73837 27.556 10.3394 26.8928 12.0089 26.8928H16.2775L14.3522 24.9692Z" fill="black"/>
</svg>
