<svg width="50" height="50" viewBox="0 0 50 50" fill="none" xmlns="http://www.w3.org/2000/svg">
<path d="M3.30401 36.88C4.76001 42.7013 5.48801 45.6107 7.65601 47.3067C9.82667 49 12.8267 49 18.8267 49H31.1733C37.1733 49 40.1733 49 42.3467 47.3067C44.5147 45.6107 45.2427 42.7013 46.696 36.88C48.984 27.728 50.128 23.1547 47.728 20.0773C45.3253 17 40.6053 17 31.176 17H18.824C9.38934 17 4.67467 17 2.27201 20.0773C0.86134 21.8827 0.672006 24.2053 1.22134 27.6667" stroke="black" stroke-width="1.5" stroke-linecap="round"/>
<path d="M45 18.3333L43.1067 11.3866C42.376 8.70663 42.0107 7.36796 41.2613 6.35729C40.5142 5.3532 39.4995 4.5797 38.3333 4.12529C37.16 3.66663 35.7733 3.66663 33 3.66663M5 18.3333L6.89333 11.3866C7.624 8.70663 7.98933 7.36796 8.73867 6.35729C9.48581 5.3532 10.5005 4.5797 11.6667 4.12529C12.84 3.66663 14.2267 3.66663 17 3.66663" stroke="black" stroke-width="1.5"/>
<path d="M17 3.66667C17 2.95942 17.281 2.28115 17.781 1.78105C18.2811 1.28095 18.9594 1 19.6667 1H30.3333C31.0406 1 31.7189 1.28095 32.219 1.78105C32.719 2.28115 33 2.95942 33 3.66667C33 4.37391 32.719 5.05219 32.219 5.55228C31.7189 6.05238 31.0406 6.33333 30.3333 6.33333H19.6667C18.9594 6.33333 18.2811 6.05238 17.781 5.55228C17.281 5.05219 17 4.37391 17 3.66667Z" stroke="black" stroke-width="1.5"/>
</svg>
