<svg width="40" height="40" viewBox="0 0 40 40" fill="none" xmlns="http://www.w3.org/2000/svg">
<path d="M20 0.833008C9.42004 0.833008 0.833374 9.41967 0.833374 19.9997C0.833374 30.5797 9.42004 39.1663 20 39.1663C30.58 39.1663 39.1667 30.5797 39.1667 19.9997C39.1667 9.41967 30.58 0.833008 20 0.833008ZM28.8934 13.8663C28.6059 16.8947 27.36 24.2547 26.7275 27.6472C26.4592 29.0847 25.9225 29.5638 25.4242 29.6213C24.3125 29.7172 23.4692 28.893 22.3959 28.1838C20.7092 27.0722 19.7509 26.3822 18.1217 25.3088C16.2242 24.063 17.4509 23.373 18.5434 22.2613C18.8309 21.9738 23.7375 17.508 23.8334 17.1055C23.8467 17.0445 23.8449 16.9813 23.8282 16.9211C23.8115 16.861 23.7804 16.8059 23.7375 16.7605C23.6225 16.6647 23.4692 16.703 23.335 16.7222C23.1625 16.7605 20.4792 18.543 15.2467 22.0697C14.48 22.5872 13.79 22.8555 13.1767 22.8363C12.4867 22.8172 11.1834 22.453 10.2059 22.1272C8.99837 21.7438 8.05921 21.533 8.13587 20.8622C8.17421 20.5172 8.65337 20.1722 9.55421 19.808C15.1509 17.3738 18.8692 15.7638 20.7284 14.9972C26.0567 12.7738 27.1492 12.3905 27.8775 12.3905C28.0309 12.3905 28.395 12.4288 28.625 12.6205C28.8167 12.7738 28.8742 12.9847 28.8934 13.138C28.8742 13.253 28.9125 13.598 28.8934 13.8663Z" fill="black"/>
</svg>
