<svg width="65" height="75" viewBox="0 0 65 75" fill="none" xmlns="http://www.w3.org/2000/svg">
<path d="M7.97396 39.5001H18.3333C18.9826 39.5001 19.6024 39.663 20.1927 39.9888C20.783 40.3147 21.2257 40.8011 21.5208 41.448L25.4167 49.2397L36.3958 27.2813C37.0451 25.9237 38.1076 25.2449 39.5833 25.2449C41.059 25.2449 42.1215 25.9237 42.7708 27.2813L48.8802 39.5001H57.026C56.1406 33.4793 53.3958 28.4324 48.7917 24.3595C44.1875 20.2866 38.7569 18.2501 32.5 18.2501C26.2431 18.2501 20.8125 20.2866 16.2083 24.3595C11.6042 28.4324 8.85938 33.4793 7.97396 39.5001ZM32.5 67.8334C38.7569 67.8334 44.1875 65.797 48.7917 61.7241C53.3958 57.6511 56.1406 52.6043 57.026 46.5834H46.6667C46.0174 46.5834 45.3976 46.4205 44.8073 46.0947C44.217 45.7688 43.7743 45.2825 43.4792 44.6355L39.5833 36.8438L28.6042 58.8022C27.9549 60.1598 26.8924 60.8386 25.4167 60.8386C23.941 60.8386 22.8785 60.1598 22.2292 58.8022L16.1198 46.5834H7.97396C8.85938 52.6043 11.6042 57.6511 16.2083 61.7241C20.8125 65.797 26.2431 67.8334 32.5 67.8334ZM32.5 74.9168C28.1319 74.9168 24.0142 74.075 20.1467 72.3916C16.2792 70.7081 12.9004 68.4213 10.0104 65.5313C7.11806 62.639 4.83014 59.2591 3.14667 55.3916C1.4632 51.5241 0.622644 47.4075 0.625005 43.0418H7.70834C7.70834 49.889 10.1285 55.7327 14.9688 60.573C19.809 65.4133 25.6528 67.8334 32.5 67.8334C39.3472 67.8334 45.191 65.4133 50.0313 60.573C54.8715 55.7327 57.2917 49.889 57.2917 43.0418H64.375C64.375 47.4098 63.5333 51.5276 61.8498 55.3951C60.1663 59.2626 57.8796 62.6413 54.9896 65.5313C52.0972 68.4237 48.7173 70.7116 44.8498 72.3951C40.9823 74.0786 36.8657 74.9191 32.5 74.9168ZM0.625005 43.0418C0.625005 38.6737 1.46674 34.5559 3.15021 30.6884C4.83369 26.8209 7.12042 23.4422 10.0104 20.5522C12.9028 17.6598 16.2827 15.3719 20.1502 13.6884C24.0177 12.005 28.1343 11.1644 32.5 11.1668C36.1597 11.1668 39.6719 11.757 43.0365 12.9376C46.401 14.1181 49.559 15.83 52.5104 18.073L54.9896 15.5938C55.6389 14.9445 56.4653 14.6199 57.4688 14.6199C58.4722 14.6199 59.2986 14.9445 59.9479 15.5938C60.5972 16.2431 60.9219 17.0695 60.9219 18.073C60.9219 19.0765 60.5972 19.9029 59.9479 20.5522L57.4688 23.0313C59.7118 25.9827 61.4236 29.1407 62.6042 32.5053C63.7847 35.8699 64.375 39.382 64.375 43.0418H57.2917C57.2917 36.1945 54.8715 30.3508 50.0313 25.5105C45.191 20.6702 39.3472 18.2501 32.5 18.2501C25.6528 18.2501 19.809 20.6702 14.9688 25.5105C10.1285 30.3508 7.70834 36.1945 7.70834 43.0418H0.625005ZM25.4167 7.62509C24.4132 7.62509 23.5715 7.28509 22.8915 6.60509C22.2115 5.92509 21.8726 5.08454 21.875 4.08343C21.875 3.07995 22.215 2.23822 22.895 1.55822C23.575 0.878218 24.4156 0.539399 25.4167 0.54176H39.5833C40.5868 0.54176 41.4285 0.88176 42.1085 1.56176C42.7885 2.24176 43.1274 3.08232 43.125 4.08343C43.125 5.0869 42.785 5.92864 42.105 6.60864C41.425 7.28864 40.5844 7.62746 39.5833 7.62509H25.4167ZM32.5 67.8334C25.6528 67.8334 19.809 65.4133 14.9688 60.573C10.1285 55.7327 7.70834 49.889 7.70834 43.0418C7.70834 36.1945 10.1285 30.3508 14.9688 25.5105C19.809 20.6702 25.6528 18.2501 32.5 18.2501C39.3472 18.2501 45.191 20.6702 50.0313 25.5105C54.8715 30.3508 57.2917 36.1945 57.2917 43.0418C57.2917 49.889 54.8715 55.7327 50.0313 60.573C45.191 65.4133 39.3472 67.8334 32.5 67.8334Z" fill="white"/>
</svg>
