<svg width="81" height="81" viewBox="0 0 81 81" fill="none" xmlns="http://www.w3.org/2000/svg">
<path d="M38.1308 7.40812C39.4626 6.90981 40.9178 6.84484 42.2887 7.22249L42.8692 7.40812L66.4942 16.2675C67.6921 16.7167 68.7377 17.497 69.5091 18.5176C70.2805 19.5382 70.746 20.757 70.8514 22.032L70.875 22.5889V40.689C70.8749 46.1579 69.3982 51.5254 66.6009 56.2248C63.8036 60.9242 59.7894 64.7812 54.9821 67.3886L54.0844 67.8578L42.7646 73.5176C42.1413 73.8288 41.4605 74.008 40.7648 74.044C40.0691 74.08 39.3734 73.9721 38.7214 73.7269L38.2354 73.5176L26.9156 67.8578C22.0239 65.4118 17.8834 61.6906 14.931 57.0868C11.9787 52.483 10.3241 47.1676 10.1419 41.7015L10.125 40.689V22.5889C10.125 21.3102 10.4882 20.0578 11.1724 18.9775C11.8565 17.8972 12.8334 17.0335 13.9894 16.4869L14.5057 16.2675L38.1308 7.40812ZM40.5 13.7295L16.875 22.5889V40.689C16.8751 44.9246 18.0139 49.0824 20.1722 52.7269C22.3305 56.3714 25.429 59.3686 29.1431 61.4048L29.9362 61.8199L40.5 67.1017L51.0638 61.8199C54.853 59.9256 58.0631 57.0474 60.3581 53.4865C62.653 49.9257 63.9482 45.8133 64.1081 41.58L64.125 40.689V22.5889L40.5 13.7295ZM52.0864 29.1229C52.6937 28.5176 53.5087 28.1661 54.3658 28.14C55.2229 28.1138 56.0578 28.4148 56.7009 28.982C57.3441 29.5491 57.7473 30.3397 57.8286 31.1933C57.9099 32.047 57.6633 32.8995 57.1388 33.5779L56.8586 33.8951L39.1939 51.5632C38.5504 52.2066 37.6931 52.5913 36.7847 52.6441C35.8763 52.697 34.9801 52.4145 34.2664 51.8501L33.9424 51.5632L25.8289 43.4497C25.2171 42.8438 24.8601 42.0269 24.8309 41.1664C24.8017 40.3058 25.1026 39.4667 25.6718 38.8207C26.2411 38.1746 27.0357 37.7706 27.8931 37.6913C28.7505 37.612 29.6058 37.8634 30.2839 38.394L30.6011 38.6741L36.5681 44.6411L52.0864 29.1229Z" fill="black"/>
</svg>
