<svg width="61" height="69" viewBox="0 0 61 69" fill="none" xmlns="http://www.w3.org/2000/svg">
<path d="M28.1308 1.40824C29.4626 0.909928 30.9178 0.844965 32.2887 1.22262L32.8692 1.40824L56.4942 10.2676C57.6921 10.7168 58.7377 11.4971 59.5091 12.5177C60.2805 13.5383 60.746 14.7571 60.8514 16.0321L60.875 16.589V34.6891C60.8749 40.158 59.3982 45.5255 56.6009 50.2249C53.8036 54.9243 49.7894 58.7813 44.9821 61.3887L44.0844 61.8579L32.7646 67.5177C32.1413 67.8289 31.4605 68.0082 30.7648 68.0442C30.0691 68.0802 29.3734 67.9722 28.7214 67.727L28.2354 67.5177L16.9156 61.8579C12.0239 59.412 7.88337 55.6907 4.93101 51.0869C1.97866 46.4832 0.324059 41.1677 0.141875 35.7016L0.125 34.6891V16.589C0.12502 15.3103 0.48824 14.0579 1.17238 12.9776C1.85651 11.8974 2.83342 11.0336 3.98937 10.487L4.50575 10.2676L28.1308 1.40824ZM30.5 7.72961L6.875 16.589V34.6891C6.87509 38.9248 8.01391 43.0825 10.1722 46.727C12.3305 50.3715 15.429 53.3687 19.1431 55.4049L19.9362 55.82L30.5 61.1019L41.0638 55.82C44.853 53.9258 48.0631 51.0475 50.3581 47.4867C52.653 43.9258 53.9482 39.8134 54.1081 35.5801L54.125 34.6891V16.589L30.5 7.72961ZM42.0864 23.123C42.6937 22.5177 43.5087 22.1663 44.3658 22.1401C45.2229 22.1139 46.0578 22.415 46.7009 22.9821C47.3441 23.5492 47.7473 24.3399 47.8286 25.1935C47.9099 26.0471 47.6633 26.8996 47.1388 27.578L46.8586 27.8952L29.1939 45.5634C28.5504 46.2067 27.6931 46.5914 26.7847 46.6443C25.8763 46.6972 24.9801 46.4146 24.2664 45.8502L23.9424 45.5634L15.8289 37.4499C15.2171 36.8439 14.8601 36.0271 14.8309 35.1665C14.8017 34.306 15.1026 33.4668 15.6718 32.8208C16.2411 32.1748 17.0357 31.7707 17.8931 31.6914C18.7505 31.6121 19.6058 31.8635 20.2839 32.3941L20.6011 32.6742L26.5681 38.6412L42.0864 23.123Z" fill="white"/>
</svg>
