<svg width="68" height="60" viewBox="0 0 68 60" fill="none" xmlns="http://www.w3.org/2000/svg">
<path d="M16.3687 24.4143L28.7059 4.69426C29.184 3.91483 29.8558 3.27251 30.656 2.82989C31.4561 2.38726 32.3572 2.15942 33.2716 2.16855C33.9917 2.14256 34.7097 2.26118 35.3832 2.51742C36.0567 2.77366 36.672 3.16231 37.1927 3.6604C37.7134 4.15848 38.129 4.7559 38.4149 5.41735C38.7009 6.07879 38.8513 6.79084 38.8573 7.5114V21.6457H60.1801C60.968 21.6712 61.7416 21.8633 62.45 22.2092C63.1584 22.5551 63.7855 23.047 64.2902 23.6526C64.7948 24.2582 65.1656 24.9637 65.3781 25.7229C65.5906 26.482 65.6399 27.2775 65.523 28.0571L61.6373 53.12C61.4715 54.4594 60.8223 55.6922 59.8116 56.5866C58.8009 57.481 57.4983 57.9755 56.1487 57.9771H24.2859C22.7691 57.9831 21.272 57.6337 19.9144 56.9571L16.4173 55.2085M16.3687 24.4143V55.0628H4.85728C4.21319 55.0628 3.59547 54.807 3.14002 54.3515C2.68458 53.8961 2.42871 53.2784 2.42871 52.6343V26.8428C2.42871 26.1987 2.68458 25.581 3.14002 25.1256C3.59547 24.6701 4.21319 24.4143 4.85728 24.4143H16.3687Z" stroke="black" stroke-width="3" stroke-linecap="round" stroke-linejoin="round"/>
</svg>
