<svg width="68" height="60" viewBox="0 0 68 60" fill="none" xmlns="http://www.w3.org/2000/svg">
<path d="M16.3685 24.4143L28.7056 4.69426C29.1837 3.91483 29.8556 3.27251 30.6557 2.82989C31.4558 2.38726 32.357 2.15942 33.2713 2.16855C33.9914 2.14256 34.7095 2.26118 35.383 2.51742C36.0565 2.77366 36.6717 3.16231 37.1925 3.6604C37.7132 4.15848 38.1288 4.7559 38.4147 5.41735C38.7006 6.07879 38.851 6.79084 38.857 7.5114V21.6457H60.1799C60.9678 21.6712 61.7414 21.8633 62.4497 22.2092C63.1581 22.5551 63.7852 23.047 64.2899 23.6526C64.7946 24.2582 65.1653 24.9637 65.3778 25.7229C65.5903 26.482 65.6397 27.2775 65.5228 28.0571L61.637 53.12C61.4713 54.4594 60.8221 55.6922 59.8114 56.5866C58.8007 57.481 57.4981 57.9755 56.1485 57.9771H24.2856C22.7688 57.9831 21.2717 57.6337 19.9142 56.9571L16.417 55.2085M16.3685 24.4143V55.0628H4.85704C4.21294 55.0628 3.59522 54.807 3.13978 54.3515C2.68433 53.8961 2.42847 53.2784 2.42847 52.6343V26.8428C2.42847 26.1987 2.68433 25.581 3.13978 25.1256C3.59522 24.6701 4.21294 24.4143 4.85704 24.4143H16.3685Z" stroke="white" stroke-width="3" stroke-linecap="round" stroke-linejoin="round"/>
</svg>
