<svg width="82" height="76" viewBox="0 0 82 76" fill="none" xmlns="http://www.w3.org/2000/svg">
<path d="M49.625 0.75C47.3375 0.75 45.1437 1.6587 43.5262 3.2762C41.9087 4.89371 41 7.08751 41 9.375V20.875C41.0003 22.6584 41.5533 24.3979 42.5831 25.8539C43.6128 27.31 45.0686 28.411 46.75 29.0055V35.25C46.7502 35.7963 46.906 36.3312 47.1993 36.7921C47.4925 37.2531 47.911 37.6209 48.4057 37.8526C48.9005 38.0843 49.451 38.1702 49.9928 38.1003C50.5346 38.0304 51.0452 37.8076 51.465 37.458L61.01 29.5H72.625C74.9125 29.5 77.1063 28.5913 78.7238 26.9738C80.3413 25.3563 81.25 23.1625 81.25 20.875V9.375C81.25 7.08751 80.3413 4.89371 78.7238 3.2762C77.1063 1.6587 74.9125 0.75 72.625 0.75H49.625ZM46.75 9.375C46.75 8.6125 47.0529 7.88124 47.5921 7.34207C48.1312 6.8029 48.8625 6.5 49.625 6.5H72.625C73.3875 6.5 74.1188 6.8029 74.6579 7.34207C75.1971 7.88124 75.5 8.6125 75.5 9.375V20.875C75.5 21.6375 75.1971 22.3688 74.6579 22.9079C74.1188 23.4471 73.3875 23.75 72.625 23.75H59.975C59.3025 23.7503 58.6515 23.9863 58.135 24.417L52.5 29.109V26.625C52.5 25.8625 52.1971 25.1312 51.6579 24.5921C51.1188 24.0529 50.3875 23.75 49.625 23.75C48.8625 23.75 48.1312 23.4471 47.5921 22.9079C47.0529 22.3688 46.75 21.6375 46.75 20.875V9.375ZM12.25 29.5C12.25 26.45 13.4616 23.5249 15.6183 21.3683C17.7749 19.2116 20.7 18 23.75 18C26.8 18 29.7251 19.2116 31.8817 21.3683C34.0384 23.5249 35.25 26.45 35.25 29.5C35.25 32.55 34.0384 35.4751 31.8817 37.6317C29.7251 39.7884 26.8 41 23.75 41C20.7 41 17.7749 39.7884 15.6183 37.6317C13.4616 35.4751 12.25 32.55 12.25 29.5ZM23.75 23.75C22.225 23.75 20.7625 24.3558 19.6841 25.4341C18.6058 26.5125 18 27.975 18 29.5C18 31.025 18.6058 32.4875 19.6841 33.5659C20.7625 34.6442 22.225 35.25 23.75 35.25C25.275 35.25 26.7375 34.6442 27.8159 33.5659C28.8942 32.4875 29.5 31.025 29.5 29.5C29.5 27.975 28.8942 26.5125 27.8159 25.4341C26.7375 24.3558 25.275 23.75 23.75 23.75ZM9.375 46.75H38.125C40.4125 46.75 42.6063 47.6587 44.2238 49.2762C45.8413 50.8937 46.75 53.0875 46.75 55.375C46.75 61.792 44.1108 66.9325 39.781 70.4112C35.5203 73.8325 29.8048 75.5 23.75 75.5C17.6952 75.5 11.9797 73.8325 7.719 70.4112C3.395 66.9325 0.75 61.792 0.75 55.375C0.75 53.0875 1.6587 50.8937 3.2762 49.2762C4.89371 47.6587 7.08751 46.75 9.375 46.75ZM38.125 52.5H9.375C8.6125 52.5 7.88124 52.8029 7.34207 53.3421C6.8029 53.8812 6.5 54.6125 6.5 55.375C6.5 60.0728 8.36875 63.5573 11.3185 65.9262C14.343 68.3528 18.69 69.75 23.75 69.75C28.81 69.75 33.157 68.3528 36.1815 65.9262C39.1313 63.5573 41 60.0728 41 55.375C41 54.6125 40.6971 53.8812 40.1579 53.3421C39.6188 52.8029 38.8875 52.5 38.125 52.5Z" fill="white"/>
</svg>
