<svg width="65" height="75" viewBox="0 0 65 75" fill="none" xmlns="http://www.w3.org/2000/svg">
<path d="M7.97396 39.5H18.3333C18.9826 39.5 19.6024 39.6629 20.1927 39.9887C20.783 40.3146 21.2257 40.8009 21.5208 41.4479L25.4167 49.2396L36.3958 27.2812C37.0451 25.9236 38.1076 25.2448 39.5833 25.2448C41.059 25.2448 42.1215 25.9236 42.7708 27.2812L48.8802 39.5H57.026C56.1406 33.4791 53.3958 28.4323 48.7917 24.3593C44.1875 20.2864 38.7569 18.25 32.5 18.25C26.2431 18.25 20.8125 20.2864 16.2083 24.3593C11.6042 28.4323 8.85938 33.4791 7.97396 39.5ZM32.5 67.8333C38.7569 67.8333 44.1875 65.7968 48.7917 61.7239C53.3958 57.651 56.1406 52.6041 57.026 46.5833H46.6667C46.0174 46.5833 45.3976 46.4204 44.8073 46.0946C44.217 45.7687 43.7743 45.2823 43.4792 44.6354L39.5833 36.8437L28.6042 58.8021C27.9549 60.1597 26.8924 60.8385 25.4167 60.8385C23.941 60.8385 22.8785 60.1597 22.2292 58.8021L16.1198 46.5833H7.97396C8.85938 52.6041 11.6042 57.651 16.2083 61.7239C20.8125 65.7968 26.2431 67.8333 32.5 67.8333ZM32.5 74.9166C28.1319 74.9166 24.0142 74.0749 20.1467 72.3914C16.2792 70.708 12.9004 68.4212 10.0104 65.5312C7.11806 62.6389 4.83014 59.2589 3.14667 55.3914C1.4632 51.5239 0.622644 47.4073 0.625005 43.0416H7.70834C7.70834 49.8889 10.1285 55.7326 14.9688 60.5729C19.809 65.4132 25.6528 67.8333 32.5 67.8333C39.3472 67.8333 45.191 65.4132 50.0313 60.5729C54.8715 55.7326 57.2917 49.8889 57.2917 43.0416H64.375C64.375 47.4097 63.5333 51.5275 61.8498 55.395C60.1663 59.2625 57.8796 62.6412 54.9896 65.5312C52.0972 68.4236 48.7173 70.7115 44.8498 72.395C40.9823 74.0784 36.8657 74.919 32.5 74.9166ZM0.625005 43.0416C0.625005 38.6736 1.46674 34.5558 3.15021 30.6883C4.83369 26.8208 7.12042 23.4421 10.0104 20.5521C12.9028 17.6597 16.2827 15.3718 20.1502 13.6883C24.0177 12.0048 28.1343 11.1643 32.5 11.1666C36.1597 11.1666 39.6719 11.7569 43.0365 12.9375C46.401 14.118 49.559 15.8298 52.5104 18.0729L54.9896 15.5937C55.6389 14.9444 56.4653 14.6198 57.4688 14.6198C58.4722 14.6198 59.2986 14.9444 59.9479 15.5937C60.5972 16.243 60.9219 17.0694 60.9219 18.0729C60.9219 19.0764 60.5972 19.9028 59.9479 20.5521L57.4688 23.0312C59.7118 25.9826 61.4236 29.1406 62.6042 32.5052C63.7847 35.8698 64.375 39.3819 64.375 43.0416H57.2917C57.2917 36.1944 54.8715 30.3507 50.0313 25.5104C45.191 20.6701 39.3472 18.25 32.5 18.25C25.6528 18.25 19.809 20.6701 14.9688 25.5104C10.1285 30.3507 7.70834 36.1944 7.70834 43.0416H0.625005ZM25.4167 7.62497C24.4132 7.62497 23.5715 7.28497 22.8915 6.60497C22.2115 5.92497 21.8726 5.08442 21.875 4.0833C21.875 3.07983 22.215 2.2381 22.895 1.5581C23.575 0.878096 24.4156 0.539277 25.4167 0.541638H39.5833C40.5868 0.541638 41.4285 0.881638 42.1085 1.56164C42.7885 2.24164 43.1274 3.08219 43.125 4.0833C43.125 5.08678 42.785 5.92851 42.105 6.60851C41.425 7.28851 40.5844 7.62733 39.5833 7.62497H25.4167ZM32.5 67.8333C25.6528 67.8333 19.809 65.4132 14.9688 60.5729C10.1285 55.7326 7.70834 49.8889 7.70834 43.0416C7.70834 36.1944 10.1285 30.3507 14.9688 25.5104C19.809 20.6701 25.6528 18.25 32.5 18.25C39.3472 18.25 45.191 20.6701 50.0313 25.5104C54.8715 30.3507 57.2917 36.1944 57.2917 43.0416C57.2917 49.8889 54.8715 55.7326 50.0313 60.5729C45.191 65.4132 39.3472 67.8333 32.5 67.8333Z" fill="black"/>
</svg>
