<svg width="81" height="81" viewBox="0 0 81 81" fill="none" xmlns="http://www.w3.org/2000/svg">
<path d="M40.5 5.0625L10.125 15.1875V45.5625C10.125 62.3399 23.7226 75.9375 40.5 75.9375C57.2774 75.9375 70.875 62.3399 70.875 45.5625V15.1875L40.5 5.0625ZM65.1797 45.5625C65.1797 59.1917 54.1292 70.2422 40.5 70.2422C26.8708 70.2422 15.8203 59.1917 15.8203 45.5625V19.459L40.5 10.7578L65.1797 19.459V45.5625Z" fill="white"/>
<path d="M39.31 54.6V26.4H42.31V54.6H39.31ZM40.39 51.36C38.71 51.36 37.1 51.14 35.56 50.7C34.02 50.24 32.78 49.65 31.84 48.93L33.49 45.27C34.39 45.91 35.45 46.44 36.67 46.86C37.91 47.26 39.16 47.46 40.42 47.46C41.38 47.46 42.15 47.37 42.73 47.19C43.33 46.99 43.77 46.72 44.05 46.38C44.33 46.04 44.47 45.65 44.47 45.21C44.47 44.65 44.25 44.21 43.81 43.89C43.37 43.55 42.79 43.28 42.07 43.08C41.35 42.86 40.55 42.66 39.67 42.48C38.81 42.28 37.94 42.04 37.06 41.76C36.2 41.48 35.41 41.12 34.69 40.68C33.97 40.24 33.38 39.66 32.92 38.94C32.48 38.22 32.26 37.3 32.26 36.18C32.26 34.98 32.58 33.89 33.22 32.91C33.88 31.91 34.86 31.12 36.16 30.54C37.48 29.94 39.13 29.64 41.11 29.64C42.43 29.64 43.73 29.8 45.01 30.12C46.29 30.42 47.42 30.88 48.4 31.5L46.9 35.19C45.92 34.63 44.94 34.22 43.96 33.96C42.98 33.68 42.02 33.54 41.08 33.54C40.14 33.54 39.37 33.65 38.77 33.87C38.17 34.09 37.74 34.38 37.48 34.74C37.22 35.08 37.09 35.48 37.09 35.94C37.09 36.48 37.31 36.92 37.75 37.26C38.19 37.58 38.77 37.84 39.49 38.04C40.21 38.24 41 38.44 41.86 38.64C42.74 38.84 43.61 39.07 44.47 39.33C45.35 39.59 46.15 39.94 46.87 40.38C47.59 40.82 48.17 41.4 48.61 42.12C49.07 42.84 49.3 43.75 49.3 44.85C49.3 46.03 48.97 47.11 48.31 48.09C47.65 49.07 46.66 49.86 45.34 50.46C44.04 51.06 42.39 51.36 40.39 51.36Z" fill="white"/>
</svg>
