<svg width="64" height="64" viewBox="0 0 64 64" fill="none" xmlns="http://www.w3.org/2000/svg">
<path d="M10.304 43.88C11.76 49.7013 12.488 52.6107 14.656 54.3067C16.8267 56 19.8267 56 25.8267 56H38.1733C44.1733 56 47.1733 56 49.3467 54.3067C51.5147 52.6107 52.2427 49.7013 53.696 43.88C55.984 34.728 57.128 30.1547 54.728 27.0773C52.3253 24 47.6053 24 38.176 24H25.824C16.3893 24 11.6747 24 9.27201 27.0773C7.86134 28.8827 7.67201 31.2053 8.22134 34.6667" stroke="black" stroke-width="1.5" stroke-linecap="round"/>
<path d="M52 25.3333L50.1067 18.3866C49.376 15.7066 49.0107 14.368 48.2613 13.3573C47.5142 12.3532 46.4995 11.5797 45.3333 11.1253C44.16 10.6666 42.7733 10.6666 40 10.6666M12 25.3333L13.8933 18.3866C14.624 15.7066 14.9893 14.368 15.7387 13.3573C16.4858 12.3532 17.5005 11.5797 18.6667 11.1253C19.84 10.6666 21.2267 10.6666 24 10.6666" stroke="black" stroke-width="1.5"/>
<path d="M24 10.6667C24 9.95942 24.281 9.28115 24.781 8.78105C25.2811 8.28095 25.9594 8 26.6667 8H37.3333C38.0406 8 38.7189 8.28095 39.219 8.78105C39.719 9.28115 40 9.95942 40 10.6667C40 11.3739 39.719 12.0522 39.219 12.5523C38.7189 13.0524 38.0406 13.3333 37.3333 13.3333H26.6667C25.9594 13.3333 25.2811 13.0524 24.781 12.5523C24.281 12.0522 24 11.3739 24 10.6667Z" stroke="black" stroke-width="1.5"/>
</svg>
